<?xml version="1.0" encoding="utf-8"?>
<!-- Generator: Adobe Illustrator 21.0.2, SVG Export Plug-In . SVG Version: 6.00 Build 0)  -->
<svg version="1.1" id="Layer_1" xmlns="http://www.w3.org/2000/svg" xmlns:xlink="http://www.w3.org/1999/xlink" x="0px" y="0px"
	 viewBox="0 0 61 60" style="enable-background:new 0 0 61 60;" xml:space="preserve">
<style type="text/css">
	.st0{fill:#7D7D7D;}
</style>
<g>
	<path class="st0" d="M42.3,37c0,1.1-0.9,2-2,2H21.6c-1.1,0-2-0.9-2-2V23.1c0-1.1,0.9-2,2-2h18.7c1.1,0,2,0.9,2,2V37z M40.3,22.7
		H21.6c-0.2,0-0.4,0.2-0.4,0.4c0,1.5,0.7,2.7,1.9,3.6c1.7,1.3,3.4,2.7,5.1,4c0.7,0.5,1.9,1.7,2.8,1.7h0h0c0.9,0,2.1-1.2,2.8-1.7
		c1.7-1.3,3.4-2.7,5.1-4c0.8-0.6,1.9-2.1,1.9-3.1C40.7,23.3,40.8,22.7,40.3,22.7z M40.7,27.2c-0.3,0.3-0.6,0.6-0.9,0.8
		c-1.8,1.4-3.7,2.8-5.4,4.3c-1,0.8-2.1,1.8-3.5,1.8h0h0c-1.3,0-2.5-1-3.5-1.8c-1.8-1.5-3.6-2.9-5.4-4.3c-0.3-0.3-0.6-0.5-0.9-0.8V37
		c0,0.2,0.2,0.4,0.4,0.4h18.7c0.2,0,0.4-0.2,0.4-0.4V27.2z"/>
</g>
</svg>
