<?xml version="1.0" encoding="utf-8"?>
<!-- Generator: Adobe Illustrator 21.0.2, SVG Export Plug-In . SVG Version: 6.00 Build 0)  -->
<svg version="1.1" id="Layer_1" xmlns="http://www.w3.org/2000/svg" xmlns:xlink="http://www.w3.org/1999/xlink" x="0px" y="0px"
	 viewBox="0 0 61 60" style="enable-background:new 0 0 61 60;" xml:space="preserve">
<style type="text/css">
	.st0{fill:#7D7D7D;}
</style>
<g>
	<path class="st0" d="M28.7,42.1h-5.5c-2.7,0-4.9-2.2-4.9-4.9v-12c0-2.7,2.2-4.9,4.9-4.9h5.5c0.3,0,0.5,0.3,0.5,0.5
		c0,0.5,0.2,1.6-0.5,1.6h-5.5c-1.5,0-2.7,1.2-2.7,2.7v12c0,1.5,1.2,2.7,2.7,2.7h4.9c0.4,0,1.1-0.1,1.1,0.5
		C29.3,40.9,29.5,42.1,28.7,42.1z M44.8,31.9l-9.3,9.3c-0.2,0.2-0.5,0.3-0.8,0.3c-0.6,0-1.1-0.5-1.1-1.1v-4.9H26
		c-0.6,0-1.1-0.5-1.1-1.1v-6.6c0-0.6,0.5-1.1,1.1-1.1h7.7v-4.9c0-0.6,0.5-1.1,1.1-1.1c0.3,0,0.6,0.1,0.8,0.3l9.3,9.3
		c0.2,0.2,0.3,0.5,0.3,0.8S45,31.7,44.8,31.9z"/>
</g>
</svg>
